<svg xmlns="http://www.w3.org/2000/svg" version="1.1" xmlns:xlink="http://www.w3.org/1999/xlink" viewBox="0 0 200 200" width="200" height="200"><metadata><rdf:RDF xmlns:rdf="http://www.w3.org/1999/02/22-rdf-syntax-ns#" xmlns:dc="http://purl.org/dc/elements/1.1/"><rdf:Description><dc:creator>RealFaviconGenerator</dc:creator><dc:source>https://realfavicongenerator.net</dc:source></rdf:Description></rdf:RDF></metadata><rect width="200" height="200" fill="url('#gradient')"></rect><defs><linearGradient id="gradient" gradientTransform="rotate(360 0.5 0.5)"><stop offset="0%" stop-color="#00ffe0"></stop><stop offset="100%" stop-color="#ff00c7"></stop></linearGradient></defs><g><g fill="#ffffff" transform="matrix(6.883353103993674,0,0,6.883353103993674,10.376279305992213,148.94489636200603)" stroke="#c8512e" stroke-width="0"><path d="M9.17-4.81L12.58-4.81Q12.51-3.33 11.78-2.19Q11.04-1.05 9.72-0.43Q8.40 0.20 6.70 0.20L6.70 0.20Q3.90 0.20 2.29-1.63Q0.67-3.46 0.67-6.79L0.67-6.79L0.67-7.49Q0.67-9.58 1.40-11.15Q2.13-12.71 3.50-13.57Q4.86-14.42 6.66-14.42L6.66-14.42Q9.25-14.42 10.82-13.06Q12.39-11.70 12.61-9.31L12.61-9.31L9.19-9.31Q9.15-10.61 8.54-11.17Q7.92-11.74 6.66-11.74L6.66-11.74Q5.38-11.74 4.79-10.78Q4.19-9.82 4.16-7.72L4.16-7.72L4.16-6.72Q4.16-4.44 4.73-3.47Q5.30-2.49 6.70-2.49L6.70-2.49Q7.88-2.49 8.51-3.05Q9.13-3.60 9.17-4.81L9.17-4.81ZM18.88 0L14.20 0L14.20-14.22L18.78-14.22Q20.66-14.22 22.17-13.36Q23.67-12.51 24.52-10.95Q25.36-9.39 25.37-7.46L25.37-7.46L25.37-6.81Q25.37-4.85 24.55-3.31Q23.72-1.76 22.22-0.88Q20.72-0.01 18.88 0L18.88 0ZM18.78-11.57L17.63-11.57L17.63-2.64L18.82-2.64Q20.29-2.64 21.08-3.69Q21.88-4.74 21.88-6.81L21.88-6.81L21.88-7.42Q21.88-9.48 21.08-10.53Q20.29-11.57 18.78-11.57L18.78-11.57Z"></path></g></g></svg>